<svg viewBox="0 0 1200 1200" xmlns="http://www.w3.org/2000/svg">
  <path
    d="m205.36 151.5h789.32c53.297 0 101.58 21.703 136.6 56.719 35.016 35.016 56.719 83.344 56.719 136.6v510.37c0 53.297-21.703 101.58-56.719 136.6-35.016 35.016-83.344 56.719-136.6 56.719h-789.32c-53.25 0-101.58-21.703-136.6-56.719-35.016-35.016-56.719-83.344-56.719-136.6v-510.37c0-53.25 21.703-101.58 56.719-136.6 35.016-35.016 83.344-56.719 136.6-56.719zm-63.75 261.56c-11.859-9.4688-13.875-26.766-4.4062-38.672 9.4688-11.859 26.766-13.875 38.672-4.4062l288.24 229.87c40.266 32.109 88.078 48.188 135.94 48.188 47.812 0 95.672-16.078 135.94-48.188l288.24-229.87c11.859-9.4688 29.203-7.5 38.672 4.4062 9.4688 11.859 7.5 29.203-4.4062 38.672l-288.24 229.87c-50.344 40.125-110.25 60.188-170.16 60.188-59.906 0-119.81-20.062-170.16-60.188l-288.24-229.87zm853.08-206.44h-789.32c-38.062 0-72.609 15.516-97.641 40.594-25.078 25.078-40.594 59.625-40.594 97.641v510.37c0 38.062 15.516 72.609 40.594 97.641s59.625 40.594 97.641 40.594h789.32c38.062 0 72.609-15.516 97.641-40.594 25.078-25.078 40.594-59.625 40.594-97.641v-510.37c0-38.062-15.516-72.609-40.594-97.641s-59.625-40.594-97.641-40.594z"
  />
</svg>
