<svg viewBox="0 0 1200 1200" xmlns="http://www.w3.org/2000/svg">
  <path
    d="m600 12c162.37 0 309.37 65.812 415.78 172.22 106.41 106.41 172.22 253.4 172.22 415.78 0 162.37-65.812 309.37-172.22 415.78-106.41 106.41-253.4 172.22-415.78 172.22-162.37 0-309.32-65.812-415.78-172.22-106.41-106.41-172.22-253.4-172.22-415.78 0-162.37 65.812-309.37 172.22-415.78 106.41-106.41 253.4-172.22 415.78-172.22zm27.562 1118.4c65.578-12 125.48-66.094 171.24-147.52 22.406-39.891 41.344-86.062 55.875-137.02-3.5625-0.84375-7.125-1.7344-10.734-2.5781-68.203-16.078-140.86-25.594-216.37-27.469v314.63zm240.37-338.02c12.656-59.672 19.641-124.55 19.641-192.37 0-67.875-6.9375-132.71-19.641-192.37-3.7969 0.9375-7.6406 1.875-11.484 2.7656-72.281 17.062-149.16 27.094-228.89 29.016v321.14c79.734 1.9219 156.61 11.953 228.89 29.016 3.8438 0.89063 7.6875 1.8281 11.484 2.7656zm-13.266-438.19c-14.531-50.953-33.469-97.125-55.875-137.02-45.797-81.422-105.66-135.56-171.24-147.52v314.63c75.562-1.875 148.22-11.391 216.37-27.516 3.6094-0.84375 7.1719-1.7344 10.734-2.5781zm-282.28-284.53c-65.578 12-125.48 66.094-171.24 147.52-22.406 39.891-41.344 86.062-55.875 137.02 3.5625 0.84375 7.1719 1.7812 10.734 2.5781 68.203 16.078 140.81 25.641 216.37 27.516zm-240.37 337.97c-12.656 59.672-19.641 124.55-19.641 192.37 0 67.875 6.9375 132.71 19.641 192.37 3.7969-0.9375 7.6875-1.875 11.531-2.8125 72.234-17.062 149.16-27.141 228.84-29.016v-321.14c-79.734-1.9219-156.61-11.953-228.84-29.016-3.8438-0.89062-7.6875-1.8281-11.531-2.7656zm13.266 438.19c14.531 50.953 33.469 97.125 55.875 137.02 45.797 81.422 105.66 135.56 171.24 147.52v-314.63c-75.562 1.875-148.22 11.391-216.37 27.516-3.6094 0.84375-7.1719 1.7344-10.734 2.5781zm501.52 163.97c-19.781 35.203-42.188 66.141-66.656 91.922 74.719-26.812 141.66-69.844 196.64-124.82 20.672-20.672 39.656-43.031 56.719-66.844-39.281-19.125-81.375-35.672-125.76-49.406-15.75 55.312-36.375 105.66-60.891 149.21zm-426.98 91.922c-24.469-25.781-46.875-56.672-66.656-91.922-24.469-43.547-45.094-93.844-60.891-149.21-44.438 13.734-86.531 30.328-125.76 49.406 17.062 23.812 36.047 46.172 56.719 66.797 55.031 55.031 121.92 98.016 196.64 124.82zm-140.95-294.52c-13.969-64.406-21.609-134.26-21.609-207.1 0-72.844 7.6406-142.69 21.609-207.1-50.25-15.422-97.875-34.312-142.22-56.344-44.297 77.672-69.609 167.63-69.609 263.44 0 95.812 25.312 185.76 69.609 263.44 44.344-21.984 91.969-40.922 142.22-56.344zm13.406-467.68c15.75-55.312 36.375-105.61 60.891-149.21 19.781-35.203 42.188-66.141 66.656-91.922-74.719 26.812-141.66 69.891-196.64 124.82-20.672 20.672-39.656 42.984-56.719 66.797 39.281 19.125 81.375 35.719 125.76 49.406zm487.87-241.08c24.469 25.781 46.875 56.672 66.656 91.922 24.469 43.547 45.094 93.891 60.891 149.21 44.438-13.734 86.531-30.328 125.76-49.406-17.062-23.812-36.047-46.172-56.719-66.844-55.031-55.031-121.92-98.016-196.64-124.82zm140.95 294.56c13.969 64.406 21.609 134.21 21.609 207.1 0 72.844-7.6875 142.69-21.609 207.1 50.25 15.422 97.875 34.359 142.22 56.344 44.297-77.672 69.562-167.63 69.562-263.44 0-95.812-25.312-185.72-69.562-263.44-44.344 21.984-91.969 40.922-142.22 56.344z"
  />
</svg>
